<svg width="480" height="480" viewBox="0 0 480 480" fill="none" xmlns="http://www.w3.org/2000/svg">
<path d="M0 90.8571C0 40.6781 40.6781 0 90.8571 0H389.143C439.322 0 480 40.6781 480 90.8571V389.143C480 439.322 439.322 480 389.143 480H90.8571C40.6781 480 0 439.322 0 389.143V90.8571Z" fill="#F6B62E"/>
<path fill-rule="evenodd" clip-rule="evenodd" d="M443.996 191.894C443.996 207.558 443.993 220.546 444 236.208C444.003 240.804 441.282 244.622 433.814 244.622C423.676 244.647 418.22 244.627 408.082 244.646C400.065 244.659 393.303 247.661 388.003 253.619C364.996 279.477 342.039 305.383 319.104 331.303C312.331 338.961 303.923 342.84 293.703 342.805C288.826 342.788 283.95 342.792 279.073 342.774C268.164 342.731 261.867 336.454 261.863 325.6C261.856 300.821 261.858 276.042 261.858 251.265C261.858 245.108 261.389 244.96 255.326 244.577C243.886 243.852 235.361 248.344 227.879 256.976C205.877 282.359 183.43 307.354 161.052 332.408C155.05 339.125 147.315 342.556 138.27 342.747C132.626 342.866 126.976 342.892 121.331 342.807C111.188 342.652 104.966 336.25 104.951 326.008C104.917 300.846 104.928 275.684 104.889 250.521C104.882 245.366 104.205 244.676 99.1567 244.667C81.0622 244.636 67.6852 244.65 49.5892 244.646C43.0652 244.643 37.7344 239.361 37.7315 233.014C37.7243 213.626 37.6895 198.946 37.746 179.559C37.8113 157.981 55.3998 139.698 76.9767 139.067C88.7749 138.724 93.4113 138.946 105.218 138.954C109.582 138.957 117.741 138.364 117.741 149.771C117.759 176.474 117.741 197.875 117.776 224.576C117.786 230.789 122.62 235.246 128.501 234.032C130.804 233.558 133.27 232.005 134.862 230.225C155.044 207.684 175.093 185.027 195.146 162.37C208.027 147.817 224.034 139.708 243.536 139.036C252.125 138.74 255.609 138.89 264.206 138.937C268.413 138.96 274.741 139.868 274.741 149.595C274.763 175.785 274.764 196.917 274.776 223.107C274.78 229.266 276.498 232.34 280.756 233.97C285.8 235.902 289.356 233.601 292.552 229.994C310.492 209.742 328.578 189.617 346.36 169.226C355.284 158.992 364.547 149.373 377.418 144.103C384.958 141.015 392.758 139.063 400.933 139.005C413.509 138.914 416.92 138.925 429.497 138.944C443.345 138.944 443.981 147.532 443.986 152.013C444.004 167.803 443.993 176.105 443.994 191.896L443.996 191.894Z" fill="black"/>
</svg>
