<svg width="2803" height="1407" viewBox="0 0 2803 1407" fill="none" xmlns="http://www.w3.org/2000/svg">
<path fill-rule="evenodd" clip-rule="evenodd" d="M2802.38 365.69C2802.38 473.69 2802.36 563.24 2802.41 671.23C2802.43 702.92 2783.66 729.25 2732.15 729.25C2662.22 729.42 2624.59 729.28 2554.66 729.41C2499.36 729.5 2452.72 750.2 2416.16 791.28C2257.47 969.57 2099.12 1148.19 1940.92 1326.91C1894.2 1379.71 1836.21 1406.46 1765.71 1406.22C1732.07 1406.1 1698.44 1406.13 1664.8 1406C1589.55 1405.71 1546.12 1362.43 1546.09 1287.59C1546.04 1116.74 1546.06 945.89 1546.06 775.05C1546.06 732.6 1542.82 731.58 1501 728.94C1422.09 723.94 1363.29 754.91 1311.68 814.43C1159.92 989.44 1005.09 1161.78 850.729 1334.53C809.329 1380.84 755.979 1404.5 693.589 1405.82C654.659 1406.64 615.689 1406.82 576.749 1406.23C506.789 1405.16 463.869 1361.02 463.769 1290.4C463.529 1116.91 463.609 943.42 463.339 769.92C463.289 734.38 458.619 729.62 423.799 729.56C298.989 729.34 206.719 729.44 81.8991 729.41C36.8991 729.39 0.129069 692.97 0.109069 649.21C0.0590692 515.53 -0.180931 414.31 0.209069 280.64C0.659069 131.86 121.979 5.79995 270.809 1.44995C352.189 -0.920045 384.169 0.609955 465.609 0.669955C495.709 0.689955 551.989 -3.40005 551.989 75.25C552.109 259.37 551.989 406.93 552.229 591.03C552.299 633.87 585.639 664.6 626.209 656.23C642.089 652.96 659.099 642.25 670.079 629.98C809.289 474.56 947.579 318.34 1085.9 162.12C1174.75 61.78 1285.16 5.86995 1419.68 1.22995C1478.92 -0.810045 1502.95 0.229955 1562.25 0.549955C1591.27 0.709955 1634.92 6.96996 1634.92 74.04C1635.07 254.62 1635.08 400.32 1635.16 580.9C1635.19 623.37 1647.04 644.56 1676.41 655.8C1711.2 669.12 1735.73 653.26 1757.77 628.39C1881.52 488.75 2006.27 349.99 2128.92 209.39C2190.48 138.83 2254.37 72.51 2343.15 36.17C2395.16 14.88 2448.96 1.41995 2505.35 1.01995C2592.09 0.389955 2615.62 0.469955 2702.37 0.599955C2797.89 0.599955 2802.28 59.81 2802.31 90.71C2802.44 199.58 2802.36 256.82 2802.37 365.7L2802.38 365.69Z" fill="#FFCC02"/>
</svg>
