<svg width="167" height="27" viewBox="0 0 167 27" fill="none" xmlns="http://www.w3.org/2000/svg">
<path d="M23.5507 10.1808H27.8921C28.9129 10.1808 29.7656 9.34932 29.7656 8.32602V2.6467C29.7656 1.63619 28.9258 0.791992 27.8921 0.791992H22.1553C21.1345 0.791992 20.2818 1.6234 20.2818 2.6467V7.13644C20.2818 8.14695 19.4419 8.99115 18.4083 8.99115H14.0669C13.0461 8.99115 12.1934 9.8226 12.1934 10.8459V16.5252C12.1934 17.5357 13.0332 18.38 14.0669 18.38H18.4083C19.429 18.38 20.2818 19.2114 20.2818 20.2347V24.3535C20.2818 25.364 21.1216 26.2082 22.1553 26.2082H27.8921C28.9129 26.2082 29.7656 25.3768 29.7656 24.3535V18.6741C29.7656 17.6636 28.9258 16.8194 27.8921 16.8194H23.5507C22.53 16.8194 21.6772 15.988 21.6772 14.9647V12.0355C21.7418 11.025 22.53 10.1808 23.5507 10.1808Z" fill="#03003A"/>
<path d="M7.67089 0.856445H1.93406C0.913315 0.856445 0.0605469 1.68789 0.0605469 2.71119V8.39051C0.0605469 9.40102 0.900394 10.2452 1.93406 10.2452H7.67089C8.69164 10.2452 9.54441 9.41381 9.54441 8.39051V2.64721C9.54441 1.70066 8.70456 0.856445 7.67089 0.856445Z" fill="#03003A"/>
<path d="M7.67089 16.7559H1.93406C0.913315 16.7559 0.0605469 17.5873 0.0605469 18.6106V24.2899C0.0605469 25.3004 0.900394 26.1446 1.93406 26.1446H7.67089C8.69164 26.1446 9.54441 25.3132 9.54441 24.2899V18.6106C9.54441 17.6001 8.70456 16.7559 7.67089 16.7559Z" fill="#03003A"/>
<path d="M53.1394 18.252H51.8732V25.607H47.2217V0.804688H51.8732V15.4507L52.9585 14.9774L57.0673 7.92943H62.1969L57.9072 14.6832L56.0983 16.0519L58.0881 17.4206L62.9204 25.6709H57.61L53.1394 18.252Z" fill="#03003A"/>
<path d="M63.5273 16.755C63.5273 13.7618 64.2509 11.4338 65.7626 9.82215C67.2098 8.21045 69.3288 7.36621 71.9775 7.36621C73.4247 7.36621 74.6392 7.60926 75.7246 8.01858C76.7453 8.49185 77.6627 9.09304 78.3217 9.93727C78.9806 10.7687 79.5233 11.7281 79.898 12.8665C80.2598 14.0049 80.4407 15.3224 80.4407 16.691C80.4407 19.6842 79.7171 22.0122 78.27 23.6239C76.8228 25.2356 74.7038 26.0798 72.0551 26.0798C70.6079 26.0798 69.3934 25.8368 68.308 25.4275C67.2873 25.0053 66.3699 24.353 65.6464 23.5088C64.9228 22.6773 64.4447 21.718 64.07 20.5796C63.7082 19.454 63.5273 18.1364 63.5273 16.755ZM68.3597 16.755C68.3597 17.5353 68.4243 18.2516 68.6052 18.9039C68.7215 19.5563 68.967 20.1575 69.2642 20.6435C69.5614 21.1168 69.9231 21.5389 70.4141 21.7819C70.8922 22.0761 71.4349 22.2041 72.1068 22.2041C73.3084 22.2041 74.2258 21.782 74.8201 20.8866C75.4274 19.9912 75.7246 18.6097 75.7246 16.7678C75.7246 15.1561 75.4274 13.8386 74.8847 12.8281C74.342 11.8176 73.4376 11.3315 72.1068 11.3315C70.9568 11.3315 70.0523 11.7536 69.4451 12.5851C68.6569 13.4165 68.3597 14.8491 68.3597 16.755Z" fill="#03003A"/>
<path d="M94.5631 25.6074V15.5663C94.5631 14.1337 94.3822 13.1104 93.9558 12.458C93.5294 11.8057 92.8058 11.4987 91.8368 11.4987C90.9323 11.4987 90.2087 11.7417 89.6015 12.2789C88.9942 12.8162 88.5807 13.4173 88.2706 14.1976V25.6714H83.6191V7.98108H87.3016L87.8442 10.3091H87.9605C88.5032 9.52883 89.2268 8.87647 90.1312 8.33924C91.0357 7.802 92.1856 7.50781 93.6328 7.50781C94.5372 7.50781 95.3254 7.62293 95.9843 7.86597C96.6433 8.109 97.2506 8.46715 97.7416 9.05554C98.2196 9.59278 98.5814 10.3091 98.8269 11.2684C99.0724 12.2278 99.1887 13.3662 99.1887 14.7349V25.7354H94.5372V25.6074H94.5631Z" fill="#03003A"/>
<path d="M114.074 25.6074V15.5663C114.074 14.1337 113.893 13.1104 113.467 12.458C113.04 11.8057 112.317 11.4987 111.348 11.4987C110.443 11.4987 109.719 11.7417 109.112 12.2789C108.505 12.8162 108.091 13.4173 107.781 14.1976V25.6714H103.13V7.98108H106.812L107.355 10.3091H107.471C108.014 9.52883 108.738 8.87647 109.642 8.33924C110.546 7.802 111.696 7.50781 113.143 7.50781C114.048 7.50781 114.836 7.62293 115.495 7.86597C116.154 8.109 116.761 8.46715 117.252 9.05554C117.73 9.59278 118.092 10.3091 118.338 11.2684C118.583 12.2278 118.699 13.3662 118.699 14.7349V25.7354H114.048V25.6074H114.074Z" fill="#03003A"/>
<path d="M136.891 24.1104C136.168 24.6476 135.199 25.1209 133.997 25.543C132.796 25.9651 131.465 26.1442 130.069 26.1442C127.175 26.1442 125.056 25.3128 123.725 23.6371C122.394 21.9614 121.735 19.6974 121.735 16.7682C121.735 13.6599 122.459 11.3319 123.971 9.77138C125.482 8.21084 127.588 7.44336 130.315 7.44336C131.219 7.44336 132.124 7.55848 132.976 7.80151C133.816 8.04455 134.604 8.40269 135.276 8.99109C135.935 9.52832 136.478 10.2446 136.904 11.204C137.331 12.0994 137.512 13.3018 137.512 14.6065C137.512 15.0797 137.512 15.617 137.447 16.2182C137.382 16.7554 137.331 17.3566 137.202 18.009H126.516C126.581 19.5055 126.994 20.6439 127.666 21.3603C128.39 22.1405 129.475 22.4987 131.051 22.4987C132.02 22.4987 132.925 22.3836 133.648 22.0766C134.436 21.7824 135.031 21.4754 135.406 21.1812L136.891 24.1104ZM130.25 11.0761C129.049 11.0761 128.131 11.4342 127.588 12.1505C126.981 12.8668 126.684 13.8262 126.568 15.0158H133.209C133.325 13.7623 133.093 12.7389 132.602 12.0866C132.059 11.4342 131.335 11.0761 130.25 11.0761Z" fill="#03003A"/>
<path d="M153.262 24.5326C152.539 25.0698 151.686 25.4279 150.665 25.7221C149.645 26.0163 148.611 26.1442 147.526 26.1442C146.078 26.1442 144.864 25.9012 143.908 25.4919C142.939 25.0698 142.099 24.4174 141.492 23.5732C140.884 22.7418 140.406 21.7824 140.161 20.644C139.864 19.5056 139.734 18.1881 139.734 16.8194C139.734 13.8263 140.393 11.4983 141.789 9.88656C143.171 8.27487 145.109 7.43066 147.707 7.43066C149.037 7.43066 150.058 7.54576 150.846 7.72484C151.634 7.96787 152.358 8.19811 153.017 8.55626L151.932 12.3169C151.389 12.0739 150.846 11.8436 150.304 11.7157C149.761 11.5878 149.154 11.4727 148.43 11.4727C147.164 11.4727 146.13 11.8948 145.471 12.7262C144.812 13.5577 144.45 14.8752 144.45 16.7299C144.45 17.5102 144.515 18.1625 144.696 18.8276C144.877 19.4928 145.122 20.0172 145.42 20.5033C145.781 20.9766 146.208 21.3347 146.75 21.6417C147.293 21.9359 147.9 22.0638 148.624 22.0638C149.412 22.0638 150.071 21.9487 150.614 21.7697C151.156 21.5906 151.634 21.3475 152.061 21.0533L153.262 24.5326Z" fill="#03003A"/>
<path d="M154.219 7.91685H156.7V4.56554L161.351 3.24805V7.91685H165.693V11.8054H161.351V18.6232C161.351 19.8767 161.468 20.7209 161.713 21.2582C161.959 21.7954 162.437 22.0384 163.096 22.0384C163.574 22.0384 164 21.9745 164.297 21.9233C164.659 21.8082 165.021 21.6803 165.447 21.5012L166.287 25.0316C165.628 25.3258 164.904 25.5688 164.052 25.8118C163.212 26.0549 162.294 26.106 161.455 26.106C159.827 26.106 158.612 25.6839 157.837 24.8525C157.049 24.0211 156.687 22.6396 156.687 20.7337V11.831H154.206V7.91685H154.219Z" fill="#03003A"/>
</svg>
