<svg xmlns="http://www.w3.org/2000/svg" viewBox="0 0 600 250" width="600" height="250">
    <g>
        <path d="M218.57 36.61h94.97c45.65 0 55.37 25.74 55.37 43.47 0 17.49-8.51 26.97-21.38 33.99 15.55 5.1 30.11 17.73 30.11 43.22 0 34.74-30.36 52.71-60.72 52.71h-98.35V36.61zm53.42 67.51h28.18c11.41 0 18.23-2.92 18.23-14.33 0-8.75-7.28-11.91-18.23-11.91h-28.18v26.24zm0 64.59h31.33c10.93 0 20.87-3.14 20.87-16.51 0-10.44-6.31-15.77-18.68-15.77h-33.53v32.28z" fill="#e61880" data-color="1"></path>
        <path fill="#e61880" d="M390.12 36.6h53.42v59.75h.49l47.6-59.75h65.81l-62.9 67.76L567.64 210h-66.55l-42.73-67.53-14.82 16.29V210h-53.42V36.6z" data-color="1"></path>
        <path d="M99.68 36.6c-30.11 0-56.57 16.76-56.57 49.54 0 17.97 8.24 36.91 25.97 43.47-14.55 5.59-23.55 21.62-25.5 43.23-.74 8.25-.74 29.62-5.83 37.16h53.42c2.68-8.75 3.65-17.73 4.38-26.7 1.22-16.53 2.92-33.77 24.04-33.77H145l-6.04 25.76 38.03-44.75-36.58-41.77 5.12 23.61h-25.44c-9.95 0-23.56-1.69-23.56-17.23 0-10.93 6.07-17.25 26.48-17.25h25l44.31 52.04L148 185.97V210h53.43V36.6H99.68z" fill="#e61880" data-color="1"></path>
    </g>
</svg>
